<svg version="1.2" xmlns="http://www.w3.org/2000/svg" viewBox="0 0 16 16" width="16" height="16">
	<title>eraser</title>
	<style>
		.s0 { fill: #000000 } 
		.s1 { fill: #ffffff } 
	</style>
	<g id="Layer 3">
		<path id="Path 0" class="s0" d="m3.8 3.8l-3.8 3.7v3.8h8.7c5-5 6.6-6.7 6.9-6.9l0.4-0.5v-3.9h-8.5z"/>
		<path id="Path 1" class="s1" d="m5.3 4c-1.7 1.7-3.1 3.2-3.2 3.3l-0.2 0.2c4.7 0 5.7 0 5.7 0 0 0 1.5-1.5 3.3-3.3l3.2-3.3h-5.7zm7 0.6c-1.5 1.5-3 3-3.3 3.3l-0.6 0.5c0 1.1 0 1.2 0.1 1.2 0 0 1.5-1.5 3.3-3.2l3.2-3.3v-1.3zm-11.4 4.9v0.9h6.6v-1.9h-6.6z"/>
	</g>
</svg>