<svg version="1.2" xmlns="http://www.w3.org/2000/svg" viewBox="0 0 448 448" width="448" height="448">
	<style>
		.s0 { fill: #9b9ca3 } 
	</style>
	<path id="Path 0" class="s0" d="m270.5 1.04c-2.2 0.45-6.02 1.55-8.5 2.44-2.48 0.89-6.71 3.06-9.41 4.82-2.71 1.76-6.94 5.45-9.41 8.2-2.46 2.75-6.08 8.38-8.03 12.5-3.09 6.54-3.59 8.71-3.98 17-0.32 7.06 0.01 11.04 1.28 15.5 0.95 3.3 3.02 8.25 4.6 11l2.87 5c-61.55 61.78-79.87 79.55-80.42 79.35-0.55-0.19-4.15-2.45-8-5.01-3.85-2.56-10.37-6.03-14.5-7.7-4.12-1.67-10.65-3.82-14.5-4.78-4.87-1.21-10.96-1.75-20-1.75-9.04 0-15.13 0.54-20 1.75-3.85 0.96-9.92 2.92-13.5 4.36-3.58 1.43-9.64 4.45-13.48 6.69-4.64 2.72-11.77 8.78-21.27 18.09-11.06 10.82-14.78 15.14-16.4 19-1.65 3.94-2 6.38-1.62 11.5 0.27 3.81 1.33 8.16 2.55 10.5 1.29 2.48 42.97 44.84 109.4 111.21 83.61 83.52 108.31 107.66 111.82 109.23 2.98 1.33 6.7 2.03 11 2.05 4.92 0.03 7.72-0.56 11.5-2.41 3.37-1.66 8.91-6.46 17.02-14.77 6.61-6.77 14.24-15.68 16.96-19.81 2.72-4.12 6.39-11.1 8.16-15.5 1.77-4.4 3.92-11.49 4.79-15.75 0.86-4.26 1.57-12.48 1.57-18.25 0-5.77-0.65-13.54-1.45-17.25-0.8-3.71-2.39-9.45-3.54-12.75-1.15-3.3-3.7-8.93-5.66-12.5-1.97-3.57-4.88-8.19-6.47-10.25-1.58-2.06-2.88-4.09-2.88-4.5 0-0.41 17.89-18.64 39.75-40.51l39.75-39.76c10.07 5.29 15.48 7.37 18.5 8.04 3.02 0.67 9.32 1.05 14 0.83 7.44-0.34 9.5-0.88 16.5-4.33 5.22-2.56 9.93-5.86 13.54-9.48 3.47-3.46 6.94-8.35 9.26-13.04 2.04-4.12 4.21-10.2 4.82-13.5 0.6-3.3 0.86-8.7 0.56-12-0.3-3.3-1.54-8.7-2.75-12-1.22-3.3-3.7-8.25-5.52-11-1.83-2.75-32.25-33.86-67.61-69.13-59.06-58.91-64.83-64.38-70.8-67.17-3.57-1.67-9.2-3.52-12.5-4.12-3.3-0.6-7.8-1.04-10-0.98-2.2 0.07-5.8 0.49-8 0.94zm-224.23 358.46c-23.06 30.8-42.75 57.57-43.75 59.5-1.02 1.97-1.83 5.68-1.85 8.5-0.02 3.08 0.74 6.53 1.99 9 1.11 2.2 3.89 5.46 6.18 7.25 2.79 2.18 5.72 3.45 8.91 3.87 2.61 0.34 6.44 0.11 8.5-0.5 2.3-0.69 25.55-17.5 59.98-43.37 30.93-23.24 56.69-42.58 57.25-42.98 0.59-0.42-10.97-12.77-27.12-29l-28.14-28.27z"/>
</svg>