<svg version="1.2" xmlns="http://www.w3.org/2000/svg" viewBox="0 0 1200 1200" width="1200" height="1200">
	<style>
		.s0 { fill: #000000 } 
	</style>
	<path id="Path 0" class="s0" d="m591 0.97c-0.83 0.47-3.98 2.02-7 3.45-3.02 1.42-7.3 4.27-9.5 6.34-2.2 2.06-7.9 8.25-12.66 13.75-4.77 5.49-9.49 10.91-10.5 12.02-1.01 1.12-4.76 5.4-8.34 9.5-3.58 4.11-7.68 8.82-9.13 10.47-1.45 1.65-28.4 32.47-59.89 68.5-31.49 36.03-60.07 68.65-63.5 72.5-3.43 3.85-7.98 9.07-10.11 11.6-2.13 2.53-7.2 8.38-11.27 13-4.07 4.62-10.19 11.55-13.6 15.4-3.4 3.85-7.72 8.8-9.59 11-1.87 2.2-3.65 4.22-3.95 4.5-0.3 0.28-5.01 5.68-10.46 12-5.45 6.32-10.17 11.73-10.48 12-0.31 0.27-3.47 3.88-7.04 8-3.56 4.13-6.71 7.73-7 8-0.28 0.27-3.43 3.86-7 7.98-3.56 4.11-7.11 8.16-7.88 9-0.77 0.83-3.07 4-5.11 7.02-2.55 3.78-4.28 8-5.54 13.5-1.77 7.77-1.77 8.2 0.04 15 1.02 3.85 3.33 9.25 5.13 12 1.8 2.75 4.99 6.39 7.08 8.1 2.09 1.7 5.37 3.9 7.3 4.89 1.93 0.99 4.85 2.29 6.5 2.88 2 0.72 29.14 1.26 81.5 1.61l78.5 0.52c0.77 384.4 1.38 496.9 1.84 498 0.47 1.1 1.72 3.8 2.79 6 1.07 2.2 3.16 5.38 4.66 7.08 1.49 1.69 4.73 4.53 7.21 6.3 2.48 1.77 7.43 4.11 11 5.19 6.23 1.89 9.77 1.97 85 1.97 75.23 0 78.77-0.08 85-1.97 3.58-1.08 8.52-3.42 11-5.19 2.48-1.77 5.72-4.61 7.21-6.3 1.5-1.7 3.59-4.88 4.66-7.08 1.07-2.2 2.32-4.9 2.79-6 0.46-1.1 1.07-113.6 1.34-250l0.5-248c133.04-0.89 157.92-1.39 160-2.17 1.65-0.62 4.36-1.74 6.03-2.48 1.66-0.74 4.95-2.92 7.3-4.85 2.35-1.93 5.75-5.75 7.55-8.5 1.8-2.75 4.11-8.15 5.13-12 1.81-6.8 1.81-7.23 0.04-15-1.26-5.5-2.99-9.72-5.54-13.5-2.04-3.02-4.34-6.19-5.11-7.02-0.77-0.84-4.32-4.89-7.88-9-3.57-4.12-6.72-7.71-7-7.98-0.29-0.27-3.44-3.88-7-8-3.57-4.13-6.73-7.73-7.04-8-0.31-0.27-5.03-5.68-10.48-12-5.45-6.32-10.16-11.72-10.46-12-0.3-0.28-2.08-2.3-3.95-4.5-1.87-2.2-6.19-7.15-9.59-11-3.41-3.85-9.53-10.78-13.6-15.4-4.07-4.62-9.14-10.47-11.27-13-2.13-2.53-6.68-7.75-10.11-11.6-3.43-3.85-32.01-36.47-63.5-72.5-31.49-36.03-58.44-66.85-59.89-68.5-1.45-1.65-5.55-6.36-9.13-10.47-3.58-4.1-7.33-8.38-8.34-9.5-1.01-1.11-5.73-6.53-10.5-12.02-4.76-5.5-10.46-11.69-12.66-13.75-2.2-2.07-6.48-4.92-9.5-6.35-3.02-1.42-6.29-2.99-7.25-3.5-0.96-0.5-5.01-0.88-9-0.85-3.99 0.03-7.92 0.44-8.75 0.91zm-553.01 977.28c0 105.21 0.34 155.13 1.08 159.25 0.59 3.3 1.75 8.03 2.58 10.5 0.83 2.47 2.94 7.43 4.68 11 1.74 3.58 5.41 9.24 8.17 12.58 2.75 3.34 7.7 8.31 11 11.03 3.3 2.72 9.15 6.55 13 8.51 3.85 1.96 9.92 4.33 13.5 5.28 3.57 0.95 7.85 2.15 9.5 2.65 1.82 0.56 198.5 0.93 498.5 0.93 300 0 496.68-0.37 498.5-0.93 1.65-0.5 5.92-1.7 9.5-2.64 3.58-0.95 8.53-2.71 11-3.9 2.47-1.2 5.62-2.82 7-3.59 1.37-0.78 5.01-3.45 8.08-5.92 3.07-2.47 7.84-7.2 10.6-10.5 2.76-3.3 6.51-8.7 8.32-12 1.82-3.3 4.1-8.47 5.07-11.5 0.98-3.03 2.26-8.2 2.86-11.5 0.75-4.14 1.08-53.48 1.08-159.25l-0.01-153.25h-149.1l-0.4 224.5h-825l-0.49-224.5h-149.01z"/>
</svg>