<svg version="1.2" xmlns="http://www.w3.org/2000/svg" viewBox="0 0 32 32" width="32" height="32">
	<style>
		.s0 { fill: #000000 } 
	</style>
	<path id="Path 0" class="s0" d="m15.76 0.03c-0.02 0.01-0.11 0.05-0.19 0.09-0.08 0.04-0.19 0.11-0.25 0.17-0.06 0.05-0.21 0.22-0.34 0.36-0.12 0.15-0.25 0.29-0.28 0.32-0.02 0.03-0.12 0.15-0.22 0.26-0.1 0.11-0.2 0.23-0.24 0.28-0.04 0.04-0.76 0.86-1.6 1.82-0.84 0.96-1.6 1.83-1.69 1.94-0.1 0.1-0.22 0.24-0.27 0.31-0.06 0.06-0.2 0.22-0.3 0.34-0.11 0.13-0.28 0.31-0.37 0.41-0.09 0.11-0.2 0.24-0.25 0.3q-0.09 0.1-0.11 0.12c-0.01 0-0.13 0.15-0.28 0.32-0.14 0.17-0.27 0.31-0.28 0.32 0 0-0.09 0.1-0.18 0.21-0.1 0.11-0.18 0.21-0.19 0.21-0.01 0.01-0.09 0.11-0.19 0.22-0.09 0.11-0.19 0.21-0.21 0.24-0.02 0.02-0.08 0.1-0.13 0.18q-0.1 0.15-0.15 0.36c-0.05 0.21-0.05 0.22 0 0.4 0.03 0.11 0.09 0.25 0.14 0.32 0.04 0.08 0.13 0.17 0.19 0.22 0.05 0.04 0.14 0.1 0.19 0.13 0.05 0.03 0.13 0.06 0.17 0.08q0.08 0.03 2.18 0.04l2.09 0.01c0.02 10.25 0.04 13.25 0.05 13.28q0.02 0.06 0.07 0.16c0.03 0.06 0.09 0.15 0.13 0.19 0.04 0.05 0.12 0.12 0.19 0.17 0.07 0.05 0.2 0.11 0.29 0.14 0.17 0.05 0.26 0.05 2.27 0.05 2.01 0 2.1 0 2.27-0.05 0.09-0.03 0.22-0.09 0.29-0.14 0.07-0.05 0.15-0.12 0.19-0.17 0.04-0.04 0.1-0.13 0.13-0.19q0.05-0.1 0.07-0.16c0.01-0.03 0.03-3.03 0.04-6.66l0.01-6.62c3.55-0.02 4.21-0.03 4.27-0.05q0.08-0.04 0.16-0.07c0.04-0.02 0.13-0.08 0.19-0.13 0.06-0.05 0.16-0.15 0.2-0.23 0.05-0.07 0.11-0.21 0.14-0.32 0.05-0.18 0.05-0.19 0-0.4q-0.05-0.21-0.15-0.36c-0.05-0.08-0.11-0.16-0.13-0.18-0.02-0.03-0.12-0.13-0.21-0.24-0.1-0.11-0.18-0.21-0.19-0.22-0.01 0-0.09-0.1-0.19-0.21-0.09-0.11-0.18-0.21-0.18-0.21-0.01-0.01-0.14-0.15-0.28-0.32-0.15-0.17-0.27-0.32-0.28-0.32q-0.02-0.02-0.11-0.12c-0.05-0.06-0.16-0.19-0.25-0.3-0.09-0.1-0.26-0.28-0.37-0.41-0.1-0.12-0.24-0.28-0.3-0.34-0.05-0.07-0.17-0.21-0.27-0.31-0.09-0.11-0.85-0.98-1.69-1.94-0.84-0.96-1.56-1.78-1.6-1.82-0.04-0.05-0.14-0.17-0.24-0.28-0.1-0.11-0.2-0.23-0.22-0.26-0.03-0.03-0.16-0.17-0.28-0.32-0.13-0.14-0.28-0.31-0.34-0.36-0.06-0.06-0.17-0.13-0.25-0.17-0.08-0.04-0.17-0.08-0.2-0.1-0.02-0.01-0.13-0.02-0.24-0.02-0.1 0-0.21 0.01-0.23 0.03zm-14.75 26.06c0 2.8 0.01 4.13 0.03 4.24 0.02 0.09 0.05 0.22 0.07 0.28 0.02 0.07 0.08 0.2 0.13 0.3 0.04 0.09 0.14 0.24 0.21 0.33 0.08 0.09 0.21 0.22 0.3 0.3 0.08 0.07 0.24 0.17 0.34 0.22 0.11 0.06 0.27 0.12 0.36 0.14 0.1 0.03 0.21 0.06 0.26 0.07 0.05 0.02 5.29 0.03 13.29 0.03 8 0 13.24-0.01 13.29-0.03 0.05-0.01 0.16-0.04 0.26-0.07 0.09-0.02 0.22-0.07 0.29-0.1 0.07-0.03 0.15-0.07 0.19-0.1 0.03-0.02 0.13-0.09 0.21-0.15 0.08-0.07 0.21-0.2 0.28-0.28 0.08-0.09 0.18-0.24 0.23-0.32 0.05-0.09 0.11-0.23 0.13-0.31 0.03-0.08 0.06-0.22 0.08-0.31 0.02-0.11 0.03-1.42 0.03-4.24v-4.09h-3.98l-0.01 5.99h-22l-0.01-5.99h-3.98z"/>
</svg>